<svg width="372" height="414" viewBox="0 0 372 414" fill="none" xmlns="http://www.w3.org/2000/svg">
<path d="M152.751 -63.343L168.563 60.7888L248.566 -35.4308L212.521 84.4004L324.744 29.0396L243.076 123.85L368.114 118.921L254.944 172.317L371.176 218.671L246.072 221.421L333.402 311.044L217.994 262.671L261.322 380.066L175.567 288.935L167.399 413.803L126.125 295.671L67.8751 406.422L78.2173 281.715L-20.0427 359.198L40.1282 249.48L-81.1521 280.298L18.4432 204.539L-104.887 183.364L16.9121 154.664L-87.143 85.1568L35.7994 108.478L-30.9886 2.6568L71.8394 73.9667L53.8668 -49.8706L118.8 57.0982L152.751 -63.343Z" fill="#B5A3F8"/>
</svg>
