<svg width="62" height="25" viewBox="0 0 62 25" fill="none" xmlns="http://www.w3.org/2000/svg">
<path d="M5.30076 0.241221H6.15267C7.77235 0.241221 8.92926 0.609329 9.62341 1.34555C10.3176 2.08176 10.6646 3.24919 10.6646 4.84784V8.00305H6.62595V5.0687C6.62595 4.24835 6.32095 3.83817 5.71094 3.83817C5.10093 3.83817 4.79593 4.25886 4.79593 5.10025V5.63664C4.79593 6.68838 5.22714 7.69805 6.08957 8.66565L8.48753 11.3476C9.4972 12.4835 10.1703 13.5036 10.5069 14.4081C10.8645 15.2916 11.0433 16.2802 11.0433 17.374V18.4784C11.0433 20.3084 10.612 21.7388 9.74962 22.7695C8.90823 23.7791 7.63562 24.284 5.93181 24.284H5.11145C1.91416 24.284 0.315522 22.6643 0.315522 19.4249V15.1969H4.44885V18.9517C4.44885 19.8982 4.80645 20.3715 5.52163 20.3715C6.21578 20.3715 6.56285 19.8036 6.56285 18.6677V18.226C6.56285 17.3425 6.47871 16.6799 6.31043 16.2382C6.16319 15.7754 5.79508 15.218 5.20611 14.5659L2.77659 11.884C1.9352 10.9795 1.34623 10.0645 1.00967 9.13893C0.694148 8.2134 0.536387 7.14063 0.536387 5.92061V4.91094C0.536387 3.41747 0.957082 2.27108 1.79847 1.47175C2.63986 0.651399 3.80729 0.241221 5.30076 0.241221ZM12.0017 0.525191H20.7732V4.65852H16.1981V9.76997H19.795V13.998H16.1981V19.772H20.994V24H12.0017V0.525191ZM21.9541 24V0.525191H27.1287L28.7379 12.3888L30.347 0.525191H35.1745V24H31.3882V10.117L29.3058 24H27.7282L25.6142 10.117V24H21.9541ZM42.6819 14.5975H40.6942V24H36.4977V0.525191H42.4611C44.1439 0.525191 45.2797 0.903817 45.8687 1.66107C46.4787 2.41832 46.7837 3.58575 46.7837 5.16336V9.86463C46.7837 13.0198 45.4165 14.5975 42.6819 14.5975ZM40.6942 4.15369V10.7796H41.483C41.9247 10.7796 42.2087 10.6745 42.3349 10.4641C42.4821 10.2327 42.5557 9.89618 42.5557 9.45445V5.54198C42.5557 5.05818 42.4821 4.71111 42.3349 4.50076C42.2087 4.26938 41.9247 4.15369 41.483 4.15369H40.6942ZM47.8984 0.525191H52.0948V19.772H56.5437V24H47.8984V0.525191ZM61.2674 19.4565V24H57.5127V19.4565H61.2674ZM57.1025 0.525191H61.6776L60.1946 18.7308H58.5855L57.1025 0.525191Z" fill="#252525"/>
</svg>
